<svg data-v-423bf9ae="" xmlns="http://www.w3.org/2000/svg" viewBox="0 0 600.7661696321017 163" class="iconAbove"><!----><defs data-v-423bf9ae=""><linearGradient data-v-423bf9ae="" gradientTransform="rotate(25)" id="71b3fb96-6cf9-4e23-bb1c-7553d851c9c6" x1="0%" y1="0%" x2="100%" y2="0%"><stop data-v-423bf9ae="" offset="0%" style="stop-color: rgb(145, 60, 0); stop-opacity: 1;"></stop><stop data-v-423bf9ae="" offset="100%" style="stop-color: rgb(217, 173, 118); stop-opacity: 1;"></stop></linearGradient></defs><!----><g data-v-423bf9ae="" id="d5414f59-8c6b-428d-b6c0-145c514410b9" fill="#ffffff" transform="matrix(4.788507461547852,0,0,4.788507461547852,-2.53788685798645,86.09656524658203)"><path d="M4.37 13.72L0.53 13.72L0.53 13.20L1.76 12.91L1.76 5.95L0.53 5.67L0.53 5.15L4.37 5.15L4.37 5.67L3.15 5.95L3.15 9.09L7.04 9.09L7.04 5.95L5.81 5.67L5.81 5.15L9.66 5.15L9.66 5.67L8.43 5.95L8.43 12.91L9.67 13.20L9.67 13.72L5.81 13.72L5.81 13.20L7.04 12.91L7.04 9.81L3.15 9.81L3.15 12.91L4.37 13.20L4.37 13.72ZM12.46 5.66L12.46 5.66Q12.07 5.66 11.79 5.40L11.79 5.40L11.79 5.40Q11.51 5.14 11.51 4.76L11.51 4.76L11.51 4.76Q11.51 4.38 11.80 4.10L11.80 4.10L11.80 4.10Q12.08 3.82 12.46 3.82L12.46 3.82L12.46 3.82Q12.82 3.82 13.11 4.10L13.11 4.10L13.11 4.10Q13.40 4.38 13.40 4.76L13.40 4.76L13.40 4.76Q13.40 5.14 13.12 5.40L13.12 5.40L13.12 5.40Q12.84 5.66 12.46 5.66L12.46 5.66ZM14.36 13.72L10.57 13.72L10.57 13.19L11.77 12.91L11.77 7.81L10.57 7.67L10.57 7.24L12.73 6.71L13.16 6.71L13.16 12.91L14.36 13.19L14.36 13.72ZM14.85 16.06L14.85 15.58L16.06 15.23L16.06 7.80L14.80 7.67L14.80 7.22L14.80 7.22Q15.67 7.01 16.71 6.86L16.71 6.86L16.71 6.86Q17.75 6.71 18.58 6.71L18.58 6.71L18.58 6.71Q20.55 6.71 21.36 7.65L21.36 7.65L21.36 7.65Q22.18 8.60 22.18 10.32L22.18 10.32L22.18 10.32Q22.18 11.86 21.37 12.79L21.37 12.79L21.37 12.79Q20.57 13.72 19.10 13.72L19.10 13.72L19.10 13.72Q18.51 13.72 17.95 13.54L17.95 13.54L18.12 12.96L18.12 12.96Q18.49 13.01 18.62 13.01L18.62 13.01L18.62 13.01Q19.84 13.01 20.24 12.29L20.24 12.29L20.24 12.29Q20.65 11.56 20.65 10.26L20.65 10.26L20.65 10.26Q20.65 9.02 20.26 8.25L20.26 8.25L20.26 8.25Q19.87 7.48 18.66 7.48L18.66 7.48L18.66 7.48Q18.07 7.48 17.44 7.67L17.44 7.67L17.44 15.20L18.89 15.55L18.89 16.06L14.85 16.06ZM32.48 13.41L32.48 13.41Q31.86 13.64 31.28 13.75L31.28 13.75L31.28 13.75Q30.70 13.86 29.95 13.86L29.95 13.86L29.95 13.86Q27.90 13.86 26.91 12.61L26.91 12.61L26.91 12.61Q25.91 11.37 25.91 9.38L25.91 9.38L25.91 9.38Q25.91 7.39 26.89 6.16L26.89 6.16L26.89 6.16Q27.87 4.93 29.95 4.93L29.95 4.93L29.95 4.93Q30.73 4.93 31.27 5.03L31.27 5.03L31.27 5.03Q31.81 5.14 32.48 5.35L32.48 5.35L32.34 7.24L31.78 7.24L31.43 5.88L31.43 5.88Q30.79 5.71 30.18 5.71L30.18 5.71L30.18 5.71Q28.63 5.71 28.01 6.73L28.01 6.73L28.01 6.73Q27.40 7.74 27.40 9.38L27.40 9.38L27.40 9.38Q27.40 10.93 28.03 12.01L28.03 12.01L28.03 12.01Q28.67 13.08 30.13 13.08L30.13 13.08L30.13 13.08Q30.79 13.08 31.43 12.87L31.43 12.87L31.78 11.69L32.37 11.69L32.48 13.41ZM36.92 6.71L36.92 6.71Q38.63 6.71 39.43 7.70L39.43 7.70L39.43 7.70Q40.24 8.69 40.24 10.32L40.24 10.32L40.24 10.32Q40.24 11.89 39.42 12.87L39.42 12.87L39.42 12.87Q38.61 13.86 36.92 13.86L36.92 13.86L36.92 13.86Q35.24 13.86 34.42 12.87L34.42 12.87L34.42 12.87Q33.60 11.89 33.60 10.32L33.60 10.32L33.60 10.32Q33.60 8.71 34.41 7.71L34.41 7.71L34.41 7.71Q35.22 6.71 36.92 6.71L36.92 6.71ZM38.72 10.28L38.72 10.28Q38.72 8.93 38.32 8.20L38.32 8.20L38.32 8.20Q37.91 7.46 36.88 7.46L36.88 7.46L36.88 7.46Q35.90 7.46 35.50 8.20L35.50 8.20L35.50 8.20Q35.11 8.95 35.11 10.28L35.11 10.28L35.11 10.28Q35.11 11.62 35.52 12.36L35.52 12.36L35.52 12.36Q35.92 13.10 36.96 13.10L36.96 13.10L36.96 13.10Q37.97 13.10 38.35 12.37L38.35 12.37L38.35 12.37Q38.72 11.63 38.72 10.28L38.72 10.28ZM41.17 13.72L41.17 13.23L42.36 12.91L42.36 7.63L41.24 7.63L41.24 7.15L42.36 6.79L42.36 6.79Q42.36 5.26 43.15 4.40L43.15 4.40L43.15 4.40Q43.93 3.53 45.25 3.53L45.25 3.53L45.25 3.53Q45.60 3.53 46.02 3.61L46.02 3.61L46.02 3.61Q46.45 3.70 46.63 3.81L46.63 3.81L46.42 5.54L45.79 5.54L45.60 4.58L45.60 4.58Q45.30 4.44 44.95 4.44L44.95 4.44L44.95 4.44Q44.27 4.44 44.02 4.91L44.02 4.91L44.02 4.91Q43.76 5.38 43.76 6.34L43.76 6.34L43.76 6.85L45.86 6.85L45.86 7.76L43.76 7.63L43.76 12.89L45.39 13.22L45.39 13.72L41.17 13.72ZM46.30 13.72L46.30 13.23L47.49 12.91L47.49 7.63L46.37 7.63L46.37 7.15L47.49 6.79L47.49 6.79Q47.49 5.26 48.27 4.40L48.27 4.40L48.27 4.40Q49.06 3.53 50.37 3.53L50.37 3.53L50.37 3.53Q50.72 3.53 51.15 3.61L51.15 3.61L51.15 3.61Q51.58 3.70 51.76 3.81L51.76 3.81L51.55 5.54L50.92 5.54L50.72 4.58L50.72 4.58Q50.43 4.44 50.08 4.44L50.08 4.44L50.08 4.44Q49.39 4.44 49.14 4.91L49.14 4.91L49.14 4.91Q48.89 5.38 48.89 6.34L48.89 6.34L48.89 6.85L50.99 6.85L50.99 7.76L48.89 7.63L48.89 12.89L50.51 13.22L50.51 13.72L46.30 13.72ZM54.68 13.87L54.68 13.87Q53.03 13.87 52.25 12.94L52.25 12.94L52.25 12.94Q51.46 12.01 51.46 10.32L51.46 10.32L51.46 10.32Q51.46 8.51 52.27 7.61L52.27 7.61L52.27 7.61Q53.07 6.71 54.53 6.71L54.53 6.71L54.53 6.71Q55.92 6.71 56.57 7.35L56.57 7.35L56.57 7.35Q57.22 7.99 57.22 9.37L57.22 9.37L57.22 9.37Q57.22 9.73 57.18 10.14L57.18 10.14L52.98 10.14L52.98 10.54L52.98 10.54Q52.98 11.77 53.50 12.40L53.50 12.40L53.50 12.40Q54.03 13.03 54.99 13.03L54.99 13.03L54.99 13.03Q55.89 13.03 57.04 12.71L57.04 12.71L57.13 13.20L57.13 13.20Q56.57 13.55 56 13.71L56 13.71L56 13.71Q55.43 13.87 54.68 13.87L54.68 13.87ZM53.00 9.56L55.76 9.41L55.76 9.10L55.76 9.10Q55.76 8.29 55.50 7.89L55.50 7.89L55.50 7.89Q55.23 7.49 54.61 7.49L54.61 7.49L54.61 7.49Q53.77 7.49 53.42 7.97L53.42 7.97L53.42 7.97Q53.06 8.46 53.00 9.56L53.00 9.56ZM61.32 13.87L61.32 13.87Q59.67 13.87 58.88 12.94L58.88 12.94L58.88 12.94Q58.10 12.01 58.10 10.32L58.10 10.32L58.10 10.32Q58.10 8.51 58.91 7.61L58.91 7.61L58.91 7.61Q59.71 6.71 61.17 6.71L61.17 6.71L61.17 6.71Q62.55 6.71 63.20 7.35L63.20 7.35L63.20 7.35Q63.85 7.99 63.85 9.37L63.85 9.37L63.85 9.37Q63.85 9.73 63.81 10.14L63.81 10.14L59.61 10.14L59.61 10.54L59.61 10.54Q59.61 11.77 60.14 12.40L60.14 12.40L60.14 12.40Q60.66 13.03 61.63 13.03L61.63 13.03L61.63 13.03Q62.52 13.03 63.67 12.71L63.67 12.71L63.77 13.20L63.77 13.20Q63.21 13.55 62.64 13.71L62.64 13.71L62.64 13.71Q62.06 13.87 61.32 13.87L61.32 13.87ZM59.64 9.56L62.40 9.41L62.40 9.10L62.40 9.10Q62.40 8.29 62.13 7.89L62.13 7.89L62.13 7.89Q61.87 7.49 61.25 7.49L61.25 7.49L61.25 7.49Q60.41 7.49 60.05 7.97L60.05 7.97L60.05 7.97Q59.70 8.46 59.64 9.56L59.64 9.56ZM74.06 13.41L74.06 13.41Q73.44 13.64 72.86 13.75L72.86 13.75L72.86 13.75Q72.28 13.86 71.53 13.86L71.53 13.86L71.53 13.86Q69.48 13.86 68.49 12.61L68.49 12.61L68.49 12.61Q67.49 11.37 67.49 9.38L67.49 9.38L67.49 9.38Q67.49 7.39 68.47 6.16L68.47 6.16L68.47 6.16Q69.45 4.93 71.53 4.93L71.53 4.93L71.53 4.93Q72.31 4.93 72.85 5.03L72.85 5.03L72.85 5.03Q73.39 5.14 74.06 5.35L74.06 5.35L73.92 7.24L73.36 7.24L73.01 5.88L73.01 5.88Q72.37 5.71 71.76 5.71L71.76 5.71L71.76 5.71Q70.21 5.71 69.59 6.73L69.59 6.73L69.59 6.73Q68.98 7.74 68.98 9.38L68.98 9.38L68.98 9.38Q68.98 10.93 69.62 12.01L69.62 12.01L69.62 12.01Q70.25 13.08 71.71 13.08L71.71 13.08L71.71 13.08Q72.37 13.08 73.01 12.87L73.01 12.87L73.36 11.69L73.95 11.69L74.06 13.41ZM78.50 6.71L78.50 6.71Q80.21 6.71 81.01 7.70L81.01 7.70L81.01 7.70Q81.82 8.69 81.82 10.32L81.82 10.32L81.82 10.32Q81.82 11.89 81.00 12.87L81.00 12.87L81.00 12.87Q80.19 13.86 78.50 13.86L78.50 13.86L78.50 13.86Q76.82 13.86 76.00 12.87L76.00 12.87L76.00 12.87Q75.18 11.89 75.18 10.32L75.18 10.32L75.18 10.32Q75.18 8.71 75.99 7.71L75.99 7.71L75.99 7.71Q76.80 6.71 78.50 6.71L78.50 6.71ZM80.30 10.28L80.30 10.28Q80.30 8.93 79.90 8.20L79.90 8.20L79.90 8.20Q79.49 7.46 78.46 7.46L78.46 7.46L78.46 7.46Q77.48 7.46 77.08 8.20L77.08 8.20L77.08 8.20Q76.69 8.95 76.69 10.28L76.69 10.28L76.69 10.28Q76.69 11.62 77.10 12.36L77.10 12.36L77.10 12.36Q77.50 13.10 78.54 13.10L78.54 13.10L78.54 13.10Q79.55 13.10 79.93 12.37L79.93 12.37L79.93 12.37Q80.30 11.63 80.30 10.28L80.30 10.28ZM82.70 13.72L82.70 13.26L83.90 12.91L83.90 7.81L82.70 7.67L82.70 7.22L84.84 6.71L85.29 6.71L85.29 7.27L85.29 7.27Q85.76 7.06 86.42 6.88L86.42 6.88L86.42 6.88Q87.08 6.71 87.65 6.71L87.65 6.71L87.65 6.71Q88.12 6.71 88.52 6.85L88.52 6.85L88.52 6.85Q88.91 7.00 89.14 7.29L89.14 7.29L89.14 7.29Q90.68 6.71 91.76 6.71L91.76 6.71L91.76 6.71Q92.60 6.71 93.06 7.08L93.06 7.08L93.06 7.08Q93.52 7.45 93.52 8.22L93.52 8.22L93.52 12.91L94.75 13.26L94.75 13.72L91.15 13.72L91.15 13.26L92.13 12.91L92.13 8.53L92.13 8.53Q92.13 8.18 92.03 7.99L92.03 7.99L92.03 7.99Q91.92 7.80 91.66 7.72L91.66 7.72L91.66 7.72Q91.39 7.64 90.87 7.64L90.87 7.64L90.87 7.64Q90.02 7.64 89.36 7.85L89.36 7.85L89.36 7.85Q89.40 7.99 89.40 8.25L89.40 8.25L89.40 12.91L90.38 13.26L90.38 13.72L87.04 13.72L87.04 13.26L88.02 12.91L88.02 8.53L88.02 8.53Q88.02 8.16 87.91 7.97L87.91 7.97L87.91 7.97Q87.81 7.78 87.54 7.71L87.54 7.71L87.54 7.71Q87.26 7.64 86.72 7.64L86.72 7.64L86.72 7.64Q86.35 7.64 85.96 7.70L85.96 7.70L85.96 7.70Q85.57 7.76 85.29 7.85L85.29 7.85L85.29 12.91L86.25 13.26L86.25 13.72L82.70 13.72ZM95.24 16.06L95.24 15.58L96.45 15.23L96.45 7.80L95.19 7.67L95.19 7.22L95.19 7.22Q96.05 7.01 97.10 6.86L97.10 6.86L97.10 6.86Q98.14 6.71 98.97 6.71L98.97 6.71L98.97 6.71Q100.94 6.71 101.75 7.65L101.75 7.65L101.75 7.65Q102.56 8.60 102.56 10.32L102.56 10.32L102.56 10.32Q102.56 11.86 101.76 12.79L101.76 12.79L101.76 12.79Q100.95 13.72 99.48 13.72L99.48 13.72L99.48 13.72Q98.90 13.72 98.34 13.54L98.34 13.54L98.50 12.96L98.50 12.96Q98.88 13.01 99.01 13.01L99.01 13.01L99.01 13.01Q100.23 13.01 100.63 12.29L100.63 12.29L100.63 12.29Q101.04 11.56 101.04 10.26L101.04 10.26L101.04 10.26Q101.04 9.02 100.65 8.25L100.65 8.25L100.65 8.25Q100.25 7.48 99.05 7.48L99.05 7.48L99.05 7.48Q98.46 7.48 97.83 7.67L97.83 7.67L97.83 15.20L99.27 15.55L99.27 16.06L95.24 16.06ZM106.32 7.56L106.32 7.56Q105.66 7.56 105.04 7.76L105.04 7.76L104.72 8.95L104.17 8.95L103.94 7.22L103.94 7.22Q105.34 6.71 106.64 6.71L106.64 6.71L106.64 6.71Q107.70 6.71 108.26 7.06L108.26 7.06L108.26 7.06Q108.82 7.42 108.82 8.30L108.82 8.30L108.82 12.80L110.03 13.09L110.03 13.55L110.03 13.55Q109.24 13.78 108.53 13.78L108.53 13.78L108.53 13.78Q108.14 13.78 107.84 13.58L107.84 13.58L107.84 13.58Q107.55 13.38 107.46 13.02L107.46 13.02L107.46 13.02Q106.89 13.44 106.33 13.66L106.33 13.66L106.33 13.66Q105.77 13.87 105.15 13.87L105.15 13.87L105.15 13.87Q104.43 13.87 104.01 13.37L104.01 13.37L104.01 13.37Q103.60 12.87 103.60 12.15L103.60 12.15L103.60 12.15Q103.60 11.48 103.99 10.92L103.99 10.92L103.99 10.92Q104.37 10.36 105.38 10.18L105.38 10.18L107.44 9.80L107.44 8.68L107.44 8.68Q107.44 8.11 107.19 7.83L107.19 7.83L107.19 7.83Q106.95 7.56 106.32 7.56L106.32 7.56ZM106.16 10.70L106.16 10.70Q105.01 10.92 105.01 11.94L105.01 11.94L105.01 11.94Q105.01 12.92 105.95 12.92L105.95 12.92L105.95 12.92Q106.55 12.92 107.44 12.45L107.44 12.45L107.44 10.47L106.16 10.70ZM113.22 7.27L113.22 7.27Q113.69 7.07 114.39 6.89L114.39 6.89L114.39 6.89Q115.09 6.71 115.71 6.71L115.71 6.71L115.71 6.71Q116.51 6.71 117.02 7.06L117.02 7.06L117.02 7.06Q117.53 7.42 117.53 8.22L117.53 8.22L117.53 12.91L118.75 13.26L118.75 13.72L115.09 13.72L115.09 13.26L116.14 12.91L116.14 8.53L116.14 8.53Q116.14 8.16 116.04 7.97L116.04 7.97L116.04 7.97Q115.93 7.78 115.67 7.71L115.67 7.71L115.67 7.71Q115.40 7.64 114.88 7.64L114.88 7.64L114.88 7.64Q113.96 7.64 113.22 7.85L113.22 7.85L113.22 12.91L114.27 13.26L114.27 13.72L110.63 13.72L110.63 13.26L111.83 12.91L111.83 7.81L110.63 7.67L110.63 7.22L112.77 6.71L113.22 6.71L113.22 7.27ZM121.97 6.85L121.97 7.29L121.23 7.62L122.78 11.79L124.17 7.63L123.17 7.36L123.17 6.85L125.99 6.85L125.99 7.35L125.09 7.63L123.09 13.24L123.09 13.24Q122.57 14.67 122.00 15.37L122.00 15.37L122.00 15.37Q121.44 16.06 120.58 16.06L120.58 16.06L120.58 16.06Q119.97 16.06 119.31 15.71L119.31 15.71L119.41 15.20L120.09 15.20L120.09 15.20Q120.82 15.20 121.25 14.79L121.25 14.79L121.25 14.79Q121.67 14.38 122.08 13.41L122.08 13.41L119.73 7.62L118.94 7.29L118.94 6.85L121.97 6.85Z"></path></g><!----><g data-v-423bf9ae="" id="3ec3ad56-7457-40ce-b327-893d34300ad5" transform="matrix(1.0507900714874268,0,0,1.0507900714874268,248.53079223632812,-7.364439964294434)" stroke="none" fill="#ffffff"><path clip-rule="evenodd" d="M87.301 17.107C67.884 7.125 57.171 29.74 51.588 34.234c-5.576 4.494-19.354 14.923-21.406 17.507C22.004 61.992 3.19 65.46 2.986 75.05c19.092.755 38.789-20.758 45.573-25.454 24.233-20.185 17.527-20.698 26.374-27.769 8.271-4.241 15.465-5.051 20.268-1.991 1.619 4.083 4.101 7.34 4.662 13.647 1.567 17.491-24.903 44.509-40.461 54.018-15.326 9.364-40.356 5.621-51.092-5.346-33.964-34.699 45.928-99.854 78.991-65.048z"></path></g><!----></svg>